<svg width="1280" height="949" viewBox="0 0 1280 949" fill="none" xmlns="http://www.w3.org/2000/svg">
<path fill-rule="evenodd" clip-rule="evenodd" d="M1060.82 457.745C1226.64 413.304 1325.04 242.825 1280.61 76.9693C1236.18 -88.8864 1065.74 -187.313 899.926 -142.872C734.109 -98.4308 635.706 72.0484 680.137 237.904C691.941 281.97 712.641 321.276 739.785 354.407L610.466 578.446L1060.82 457.745ZM842.322 242.717C867.195 236.051 881.955 210.479 875.291 185.6C868.626 160.722 843.06 145.958 818.188 152.624C793.316 159.29 778.555 184.862 785.22 209.741C791.884 234.619 817.45 249.383 842.322 242.717ZM992.441 202.483C1017.31 195.817 1032.07 170.245 1025.41 145.367C1018.74 120.488 993.179 105.724 968.307 112.39C943.434 119.057 928.674 144.628 935.338 169.507C942.003 194.385 967.569 209.149 992.441 202.483ZM1175.53 105.133C1182.19 130.011 1167.43 155.583 1142.56 162.249C1117.69 168.915 1092.12 154.151 1085.46 129.273C1078.79 104.395 1093.55 78.8229 1118.43 72.1567C1143.3 65.4906 1168.86 80.2545 1175.53 105.133Z" stroke="white" stroke-linecap="round" stroke-dasharray="8 8"/>
<path d="M-77.924 891.691C-122.354 725.836 -23.9515 555.356 141.865 510.916L592.221 390.214L462.902 614.254C490.047 647.385 510.746 686.691 522.551 730.756C566.981 896.612 468.578 1067.09 302.762 1111.53C178.483 1144.84 51.6087 1097.89 -22.8646 1002.46C-47.7562 970.556 -66.7938 933.239 -77.924 891.691Z" stroke="white" stroke-linecap="round" stroke-dasharray="8 8"/>
<path fill-rule="evenodd" clip-rule="evenodd" d="M1137.14 438.084C1302.95 393.643 1401.35 223.164 1356.92 57.3082C1312.49 -108.548 1142.05 -206.974 976.238 -162.533C810.422 -118.092 712.019 52.3872 756.449 218.243C768.254 262.309 788.953 301.614 816.098 334.746L686.779 558.785L1137.14 438.084ZM918.635 223.056C943.508 216.389 958.268 190.818 951.604 165.939C944.939 141.061 919.373 126.297 894.501 132.963C869.628 139.629 854.868 165.201 861.532 190.079C868.197 214.958 893.763 229.722 918.635 223.056ZM1068.75 182.822C1093.63 176.156 1108.39 150.584 1101.72 125.705C1095.06 100.827 1069.49 86.0632 1044.62 92.7293C1019.75 99.3954 1004.99 124.967 1011.65 149.846C1018.32 174.724 1043.88 189.488 1068.75 182.822ZM1251.84 85.4718C1258.51 110.35 1243.75 135.922 1218.87 142.588C1194 149.254 1168.43 134.49 1161.77 109.612C1155.11 84.7336 1169.87 59.1617 1194.74 52.4956C1219.61 45.8295 1245.18 60.5934 1251.84 85.4718Z" stroke="#A9FF1C"/>
<path d="M-1.61111 872.03C-46.0415 706.174 52.3614 535.695 218.178 491.254L668.534 370.553L539.215 594.593C566.36 627.724 587.059 667.03 598.864 711.095C643.294 876.951 544.891 1047.43 379.075 1091.87C254.796 1125.18 127.922 1078.23 53.4483 982.794C28.5567 950.895 9.51903 913.578 -1.61111 872.03Z" stroke="#A9FF1C"/>
</svg>
