<svg width="1280" height="949" viewBox="0 0 1280 949" fill="none" xmlns="http://www.w3.org/2000/svg">
<path fill-rule="evenodd" clip-rule="evenodd" d="M1060.82 457.745C1226.64 413.304 1325.04 242.825 1280.61 76.9693C1236.18 -88.8864 1065.74 -187.313 899.926 -142.872C734.109 -98.4308 635.706 72.0484 680.137 237.904C691.941 281.97 712.641 321.276 739.785 354.407L610.466 578.446L1060.82 457.745ZM842.322 242.717C867.195 236.051 881.955 210.479 875.291 185.6C868.626 160.722 843.06 145.958 818.188 152.624C793.316 159.29 778.555 184.862 785.22 209.741C791.884 234.619 817.45 249.383 842.322 242.717ZM992.441 202.483C1017.31 195.817 1032.07 170.245 1025.41 145.367C1018.74 120.488 993.179 105.724 968.307 112.39C943.434 119.057 928.674 144.628 935.338 169.507C942.003 194.385 967.569 209.149 992.441 202.483ZM1175.53 105.133C1182.19 130.011 1167.43 155.583 1142.56 162.249C1117.69 168.915 1092.12 154.151 1085.46 129.273C1078.79 104.395 1093.55 78.8229 1118.43 72.1567C1143.3 65.4906 1168.86 80.2545 1175.53 105.133Z" stroke="white" stroke-linecap="round" stroke-dasharray="8 8"/>
<path d="M-77.924 891.691C-122.354 725.836 -23.9515 555.356 141.865 510.916L592.221 390.214L462.902 614.254C490.047 647.385 510.746 686.691 522.551 730.756C566.981 896.612 468.578 1067.09 302.762 1111.53C178.483 1144.84 51.6087 1097.89 -22.8646 1002.46C-47.7562 970.556 -66.7938 933.239 -77.924 891.691Z" stroke="white" stroke-linecap="round" stroke-dasharray="8 8"/>
</svg>
