<svg width="1280" height="949" viewBox="0 0 1280 949" fill="none" xmlns="http://www.w3.org/2000/svg">
<path fill-rule="evenodd" clip-rule="evenodd" d="M1137.14 438.084C1302.95 393.643 1401.35 223.164 1356.92 57.3082C1312.49 -108.548 1142.05 -206.974 976.238 -162.533C810.422 -118.092 712.019 52.3872 756.449 218.243C768.254 262.309 788.953 301.614 816.098 334.746L686.779 558.785L1137.14 438.084ZM918.635 223.056C943.508 216.389 958.268 190.818 951.604 165.939C944.939 141.061 919.373 126.297 894.501 132.963C869.628 139.629 854.868 165.201 861.532 190.079C868.197 214.958 893.763 229.722 918.635 223.056ZM1068.75 182.822C1093.63 176.156 1108.39 150.584 1101.72 125.705C1095.06 100.827 1069.49 86.0632 1044.62 92.7293C1019.75 99.3954 1004.99 124.967 1011.65 149.846C1018.32 174.724 1043.88 189.488 1068.75 182.822ZM1251.84 85.4718C1258.51 110.35 1243.75 135.922 1218.87 142.588C1194 149.254 1168.43 134.49 1161.77 109.612C1155.11 84.7336 1169.87 59.1617 1194.74 52.4956C1219.61 45.8295 1245.18 60.5934 1251.84 85.4718Z" stroke="#A9FF1C"/>
<path d="M-1.61111 872.03C-46.0415 706.174 52.3614 535.695 218.178 491.254L668.534 370.553L539.215 594.593C566.36 627.724 587.059 667.03 598.864 711.095C643.294 876.951 544.891 1047.43 379.075 1091.87C254.796 1125.18 127.922 1078.23 53.4483 982.794C28.5567 950.895 9.51903 913.578 -1.61111 872.03Z" stroke="#A9FF1C"/>
</svg>
