<svg width="64" height="65" viewBox="0 0 64 65" fill="none" xmlns="http://www.w3.org/2000/svg">
<g filter="url(#filter0_d_2227_82460)">
<rect x="16" y="14" width="32" height="33" rx="8" fill="white"/>
<rect width="16" height="16" transform="translate(24 22.5)" fill="white" fill-opacity="0.01" style="mix-blend-mode:multiply"/>
<path d="M32 27.5C32.5523 27.5 33 27.0523 33 26.5C33 25.9477 32.5523 25.5 32 25.5C31.4477 25.5 31 25.9477 31 26.5C31 27.0523 31.4477 27.5 32 27.5Z" fill="black"/>
<path d="M32 31.5C32.5523 31.5 33 31.0523 33 30.5C33 29.9477 32.5523 29.5 32 29.5C31.4477 29.5 31 29.9477 31 30.5C31 31.0523 31.4477 31.5 32 31.5Z" fill="black"/>
<path d="M32 35.5C32.5523 35.5 33 35.0523 33 34.5C33 33.9477 32.5523 33.5 32 33.5C31.4477 33.5 31 33.9477 31 34.5C31 35.0523 31.4477 35.5 32 35.5Z" fill="black"/>
</g>
<defs>
<filter id="filter0_d_2227_82460" x="0" y="0" width="64" height="65" filterUnits="userSpaceOnUse" color-interpolation-filters="sRGB">
<feFlood flood-opacity="0" result="BackgroundImageFix"/>
<feColorMatrix in="SourceAlpha" type="matrix" values="0 0 0 0 0 0 0 0 0 0 0 0 0 0 0 0 0 0 127 0" result="hardAlpha"/>
<feOffset dy="2"/>
<feGaussianBlur stdDeviation="8"/>
<feComposite in2="hardAlpha" operator="out"/>
<feColorMatrix type="matrix" values="0 0 0 0 0 0 0 0 0 0 0 0 0 0 0 0 0 0 0.08 0"/>
<feBlend mode="normal" in2="BackgroundImageFix" result="effect1_dropShadow_2227_82460"/>
<feBlend mode="normal" in="SourceGraphic" in2="effect1_dropShadow_2227_82460" result="shape"/>
</filter>
</defs>
</svg>
