<svg width="227" height="274" viewBox="0 0 227 274" fill="none" xmlns="http://www.w3.org/2000/svg">
<path fill-rule="evenodd" clip-rule="evenodd" d="M488.742 -8.95453C559.13 -27.8148 600.901 -100.164 582.041 -170.552C563.18 -240.94 490.831 -282.711 420.443 -263.85C350.055 -244.99 308.284 -172.64 327.144 -102.253C332.155 -83.5519 340.942 -66.8708 352.464 -52.8103L297.57 42.2698L488.742 -8.95453ZM395.991 -100.21C406.549 -103.04 412.815 -113.892 409.986 -124.45C407.156 -135.008 396.304 -141.274 385.746 -138.445C375.188 -135.616 368.922 -124.763 371.751 -114.205C374.58 -103.647 385.433 -97.3814 395.991 -100.21ZM459.715 -117.285C470.273 -120.114 476.539 -130.967 473.71 -141.525C470.881 -152.083 460.028 -158.349 449.47 -155.52C438.912 -152.691 432.646 -141.838 435.475 -131.28C438.304 -120.722 449.157 -114.456 459.715 -117.285ZM537.434 -158.6C540.263 -148.042 533.997 -137.189 523.439 -134.36C512.881 -131.531 502.028 -137.797 499.199 -148.355C496.37 -158.913 502.636 -169.765 513.194 -172.594C523.752 -175.423 534.605 -169.158 537.434 -158.6Z" stroke="#A9FF1C"/>
<path d="M5.35342 175.208C-13.5069 104.82 28.2643 32.4708 98.6521 13.6105L289.825 -37.6139L234.93 57.4663C246.452 71.5268 255.239 88.2078 260.25 106.909C279.11 177.296 237.339 249.646 166.951 268.506C114.196 282.642 60.339 262.719 28.7257 222.215C18.1594 208.677 10.0781 192.841 5.35342 175.208Z" stroke="#A9FF1C"/>
</svg>
